<?xml version="1.0" encoding="UTF-8"?><svg xmlns="http://www.w3.org/2000/svg" viewBox="0 0 675.78 189.62"><defs><style>.d{fill:#fff;}</style></defs><g id="a"/><g id="b"><g id="c"><g><g><g><path class="d" d="M138.68,86.58c1.22-5.18,1.86-10.59,1.87-16.14H70.35v70.37c6.2-.02,12.21-.83,17.94-2.36v-21.46h34.65c4.04-4.58,7.5-9.68,10.25-15.2h-44.9v-15.2h50.4Z"/><path class="d" d="M17.09,70.31c0-29.35,23.88-53.22,53.22-53.22,26.35,0,48.28,19.26,52.48,44.43h17.26C135.73,26.84,106.16,0,70.31,0,31.48,0,0,31.48,0,70.31c0,35.85,26.84,65.42,61.52,69.75v-17.26c-25.18-4.2-44.43-26.13-44.43-52.48Z"/></g><g><path class="d" d="M149.26,112.43v-41.91h17.81v41.91c0,8.72,4.5,13.5,12,13.5s12.38-4.78,12.38-13.6v-41.82h17.81v41.91c0,17.35-11.44,29.72-30.19,29.72s-29.82-12.38-29.82-29.72Z"/><path class="d" d="M222.21,70.51h17.81v53.82h28.22v16.13h-46.04V70.51Z"/><path class="d" d="M276.97,70.51h17.81v53.82h28.22v16.13h-46.04V70.51Z"/><path class="d" d="M384.62,142.05c-19.88,0-36.47-14.72-36.47-36.57s16.6-36.66,36.47-36.66c8.06,0,14.25,2.16,19.5,4.78v17.44c-5.63-3.84-10.69-5.81-17.44-5.81-11.44,0-20.63,8.16-20.63,20.25s9.19,20.35,20.63,20.35c6.75,0,11.72-2.34,17.44-6.28v17.72c-5.25,2.63-11.44,4.78-19.5,4.78Z"/><path class="d" d="M415,70.51h17.81v69.95h-17.81V70.51Z"/><path class="d" d="M502.01,140.46h-21.1l-16.03-23.16h-.56v23.16h-17.81V70.51h23.53c17.16,0,28.5,7.97,28.5,23.53,0,7.41-3.66,16.97-16.13,21.19l19.6,25.22Zm-32.35-36.66c6.75,0,10.97-3.09,10.97-8.63s-4.41-8.63-10.88-8.63h-5.44v17.25h5.34Z"/><path class="d" d="M542.24,142.05c-19.88,0-36.47-14.72-36.47-36.57s16.6-36.66,36.47-36.66c8.06,0,14.25,2.16,19.5,4.78v17.44c-5.63-3.84-10.69-5.81-17.44-5.81-11.44,0-20.63,8.16-20.63,20.25s9.19,20.35,20.63,20.35c6.75,0,11.72-2.34,17.44-6.28v17.72c-5.25,2.63-11.44,4.78-19.5,4.78Z"/><path class="d" d="M572.62,70.51h17.81v53.82h28.22v16.13h-46.04V70.51Z"/><path class="d" d="M627.38,70.51h46.13v15.85h-28.32v11.63h25.6v14.44h-25.6v12.19h28.32v15.85h-46.13V70.51Z"/></g></g><g><path class="d" d="M94.79,174.54c0,8.7-6.42,14.42-15.7,14.42h-8.51v-28.84h8.51c9.4,0,15.7,5.76,15.7,14.42Zm-17.9,8.7h2.47c5.37,0,9.05-3.13,9.05-8.66s-3.67-8.7-9.05-8.7h-2.47v17.36Z"/><path class="d" d="M124.63,160.12h18.1v5.68h-11.79v5.99h10.79v5.22h-10.79v6.3h11.79v5.65h-18.1v-28.84Z"/><path class="d" d="M189.85,161.47v5.8c-1.89-1.35-4.76-2.2-7.15-2.2-2.55,0-4.33,1.01-4.33,2.82,0,1.7,1.58,2.47,4.6,3.71,4.1,1.62,8.58,3.44,8.58,8.93s-4.21,9.05-10.59,9.05c-3.6,0-6.8-1.16-8.74-2.59v-6.11c2.01,1.82,5.14,3.17,8.12,3.17s4.76-1.32,4.76-3.29-2.01-2.86-5.14-4.14c-3.56-1.47-7.81-3.36-7.81-8.51s3.98-8.62,10.21-8.62c2.94,0,5.57,.85,7.5,1.97Z"/><path class="d" d="M221.31,160.12h6.3v28.84h-6.3v-28.84Z"/><path class="d" d="M272.38,183.86c1.7,0,2.94-.31,4.18-.89v-9.55h5.76v13.26c-2.78,1.78-5.95,2.94-10.01,2.94-8,0-14.92-5.84-14.92-15.04s6.92-15.12,14.96-15.12c3.48,0,6.5,.89,8.82,2.2v6.22c-2.51-1.78-5.41-2.51-8.08-2.51-5.53,0-9.32,3.98-9.32,9.32s3.71,9.16,8.62,9.16Z"/><path class="d" d="M337.44,188.96h-5.96l-12.84-18.83h-.04v18.83h-6.03v-28.84h6.11l12.72,18.52h.04v-18.52h5.99v28.84Z"/><path class="d" d="M420.25,161.47v5.8c-1.89-1.35-4.76-2.2-7.15-2.2-2.55,0-4.33,1.01-4.33,2.82,0,1.7,1.58,2.47,4.6,3.71,4.1,1.62,8.58,3.44,8.58,8.93s-4.21,9.05-10.59,9.05c-3.6,0-6.8-1.16-8.74-2.59v-6.11c2.01,1.82,5.14,3.17,8.12,3.17s4.76-1.32,4.76-3.29-2.01-2.86-5.14-4.14c-3.56-1.47-7.81-3.36-7.81-8.51s3.98-8.62,10.21-8.62c2.94,0,5.57,.85,7.5,1.97Z"/><path class="d" d="M457.51,165.88h-8.47v-5.76h23.16v5.76h-8.43v23.08h-6.26v-23.08Z"/><path class="d" d="M500.89,177.59v-17.48h6.3v17.52c0,3.94,2.09,6.23,5.57,6.23s5.76-2.28,5.76-6.26v-17.48h6.34v17.48c0,7.08-4.64,12.03-12.1,12.03s-11.87-4.95-11.87-12.03Z"/><path class="d" d="M580.1,174.54c0,8.7-6.42,14.42-15.7,14.42h-8.51v-28.84h8.51c9.4,0,15.7,5.76,15.7,14.42Zm-17.9,8.7h2.47c5.37,0,9.05-3.13,9.05-8.66s-3.67-8.7-9.05-8.7h-2.47v17.36Z"/><path class="d" d="M609.94,160.12h6.3v28.84h-6.3v-28.84Z"/><path class="d" d="M646.01,174.54c0-8.74,6.5-15.08,14.92-15.08s14.85,6.34,14.85,15.08-6.42,15.08-14.85,15.08-14.92-6.3-14.92-15.08Zm23.39,0c0-5.92-4.14-9.28-8.47-9.28s-8.54,3.36-8.54,9.28,4.14,9.32,8.54,9.32,8.47-3.4,8.47-9.32Z"/></g></g></g></g></svg>